<svg xmlns="http://www.w3.org/2000/svg" xmlns:xlink="http://www.w3.org/1999/xlink" width="142" zoomAndPan="magnify" viewBox="0 0 106.5 78.749998" height="105" preserveAspectRatio="xMidYMid meet" version="1.0"><defs><g/></defs><path fill="#000000" d="M 72.738281 42.359375 C 73.066406 42.359375 73.390625 42.328125 73.710938 42.265625 C 74.03125 42.203125 74.339844 42.105469 74.644531 41.980469 C 74.945312 41.855469 75.230469 41.703125 75.503906 41.523438 C 75.773438 41.339844 76.027344 41.132812 76.257812 40.902344 C 76.488281 40.671875 76.695312 40.421875 76.875 40.148438 C 77.058594 39.878906 77.210938 39.589844 77.335938 39.289062 C 77.460938 38.988281 77.554688 38.675781 77.621094 38.355469 C 77.683594 38.035156 77.714844 37.710938 77.714844 37.382812 L 77.714844 10.011719 C 77.714844 9.6875 77.683594 9.363281 77.621094 9.042969 C 77.554688 8.722656 77.460938 8.410156 77.335938 8.109375 C 77.210938 7.804688 77.058594 7.519531 76.875 7.246094 C 76.695312 6.976562 76.488281 6.726562 76.257812 6.492188 C 76.027344 6.261719 75.773438 6.054688 75.503906 5.875 C 75.230469 5.695312 74.945312 5.539062 74.644531 5.414062 C 74.339844 5.289062 74.03125 5.195312 73.710938 5.132812 C 73.390625 5.066406 73.066406 5.035156 72.738281 5.035156 L 46.511719 5.035156 C 47.382812 6.554688 47.855469 8.269531 47.855469 10.011719 L 72.738281 10.011719 L 72.738281 37.382812 L 50.34375 37.382812 L 50.34375 42.359375 M 60.296875 17.476562 L 60.296875 22.453125 L 45.367188 22.453125 L 45.367188 54.800781 L 40.390625 54.800781 L 40.390625 39.871094 L 35.414062 39.871094 L 35.414062 54.800781 L 30.4375 54.800781 L 30.4375 34.894531 L 26.703125 34.894531 L 26.703125 22.453125 C 26.703125 22.128906 26.738281 21.804688 26.800781 21.484375 C 26.863281 21.164062 26.957031 20.851562 27.082031 20.550781 C 27.207031 20.25 27.363281 19.960938 27.542969 19.691406 C 27.726562 19.417969 27.929688 19.167969 28.164062 18.933594 C 28.394531 18.703125 28.644531 18.5 28.917969 18.316406 C 29.1875 18.136719 29.476562 17.980469 29.777344 17.855469 C 30.078125 17.730469 30.390625 17.636719 30.710938 17.574219 C 31.03125 17.507812 31.355469 17.476562 31.679688 17.476562 Z M 42.878906 10.011719 C 42.878906 10.339844 42.847656 10.664062 42.78125 10.984375 C 42.71875 11.304688 42.625 11.617188 42.5 11.917969 C 42.375 12.21875 42.222656 12.507812 42.039062 12.777344 C 41.859375 13.050781 41.652344 13.300781 41.421875 13.53125 C 41.191406 13.761719 40.9375 13.96875 40.667969 14.152344 C 40.394531 14.332031 40.109375 14.484375 39.804688 14.609375 C 39.503906 14.734375 39.195312 14.832031 38.871094 14.894531 C 38.550781 14.957031 38.230469 14.988281 37.902344 14.988281 C 37.574219 14.988281 37.25 14.957031 36.929688 14.894531 C 36.609375 14.832031 36.300781 14.734375 35.996094 14.609375 C 35.695312 14.484375 35.410156 14.332031 35.136719 14.152344 C 34.867188 13.96875 34.613281 13.761719 34.382812 13.53125 C 34.152344 13.300781 33.945312 13.050781 33.765625 12.777344 C 33.582031 12.507812 33.429688 12.21875 33.304688 11.917969 C 33.179688 11.617188 33.085938 11.304688 33.019531 10.984375 C 32.957031 10.664062 32.925781 10.339844 32.925781 10.011719 C 32.925781 9.6875 32.957031 9.363281 33.019531 9.042969 C 33.085938 8.722656 33.179688 8.410156 33.304688 8.109375 C 33.429688 7.804688 33.582031 7.519531 33.765625 7.246094 C 33.945312 6.976562 34.152344 6.726562 34.382812 6.492188 C 34.613281 6.261719 34.867188 6.054688 35.136719 5.875 C 35.410156 5.695312 35.695312 5.539062 35.996094 5.414062 C 36.300781 5.289062 36.609375 5.195312 36.929688 5.132812 C 37.25 5.066406 37.574219 5.035156 37.902344 5.035156 C 38.230469 5.035156 38.550781 5.066406 38.871094 5.132812 C 39.195312 5.195312 39.503906 5.289062 39.804688 5.414062 C 40.109375 5.539062 40.394531 5.695312 40.667969 5.875 C 40.9375 6.054688 41.191406 6.261719 41.421875 6.492188 C 41.652344 6.726562 41.859375 6.976562 42.039062 7.246094 C 42.222656 7.519531 42.375 7.804688 42.5 8.109375 C 42.625 8.410156 42.71875 8.722656 42.78125 9.042969 C 42.847656 9.363281 42.878906 9.6875 42.878906 10.011719 " fill-opacity="1" fill-rule="nonzero"/><g fill="#000000" fill-opacity="1"><g transform="translate(3.894229, 70.013591)"><g><path d="M 3.71875 -4.984375 L 3.71875 -1.875 L 9.15625 -1.875 L 9.15625 0 L 1.484375 0 L 1.484375 -11.359375 L 9.03125 -11.359375 L 9.03125 -9.484375 L 3.71875 -9.484375 L 3.71875 -6.828125 L 8.359375 -6.828125 L 8.359375 -4.984375 Z M 3.71875 -4.984375 "/></g></g></g><g fill="#000000" fill-opacity="1"><g transform="translate(13.666271, 70.013591)"><g><path d="M 2.5 0 L 0.1875 0 L 3.5625 -5.84375 L 0.359375 -11.359375 L 2.75 -11.359375 L 5.09375 -7.296875 L 5.296875 -7.296875 L 7.6875 -11.359375 L 9.953125 -11.359375 L 6.75 -5.84375 L 10.125 0 L 7.75 0 L 5.21875 -4.390625 L 5.015625 -4.390625 Z M 2.5 0 "/></g></g></g><g fill="#000000" fill-opacity="1"><g transform="translate(23.9825, 70.013591)"><g><path d="M 10.90625 0 L 8.546875 0 L 7.6875 -2.625 L 3.328125 -2.625 L 2.484375 0 L 0.171875 0 L 4.09375 -11.359375 L 6.984375 -11.359375 Z M 5.40625 -9 L 3.9375 -4.515625 L 7.0625 -4.515625 L 5.59375 -9 Z M 5.40625 -9 "/></g></g></g><g fill="#000000" fill-opacity="1"><g transform="translate(35.06059, 70.013591)"><g><path d="M 3.53125 0 L 1.484375 0 L 1.484375 -11.359375 L 4.421875 -11.359375 L 7.296875 -3.015625 L 7.453125 -3.015625 L 10.3125 -11.359375 L 13.1875 -11.359375 L 13.1875 0 L 11.0625 0 L 11.0625 -7.515625 L 10.859375 -7.546875 L 8.234375 0 L 6.359375 0 L 3.734375 -7.546875 L 3.53125 -7.515625 Z M 3.53125 0 "/></g></g></g><g fill="#000000" fill-opacity="1"><g transform="translate(49.730312, 70.013591)"><g/></g></g><g fill="#000000" fill-opacity="1"><g transform="translate(53.485205, 70.013591)"><g><path d="M 5.5625 -11.359375 C 7.40625 -11.359375 8.8125 -10.878906 9.78125 -9.921875 C 10.757812 -8.972656 11.25 -7.5625 11.25 -5.6875 C 11.25 -3.8125 10.757812 -2.394531 9.78125 -1.4375 C 8.8125 -0.476562 7.40625 0 5.5625 0 L 1.484375 0 L 1.484375 -11.359375 Z M 5.4375 -1.890625 C 6.601562 -1.890625 7.476562 -2.1875 8.0625 -2.78125 C 8.644531 -3.382812 8.9375 -4.351562 8.9375 -5.6875 C 8.9375 -7.019531 8.644531 -7.984375 8.0625 -8.578125 C 7.476562 -9.179688 6.601562 -9.484375 5.4375 -9.484375 L 3.71875 -9.484375 L 3.71875 -1.890625 Z M 5.4375 -1.890625 "/></g></g></g><g fill="#000000" fill-opacity="1"><g transform="translate(65.63612, 70.013591)"><g><path d="M 6.03125 0.15625 C 4.457031 0.15625 3.289062 -0.210938 2.53125 -0.953125 C 1.78125 -1.691406 1.40625 -2.796875 1.40625 -4.265625 L 1.40625 -11.359375 L 3.609375 -11.359375 L 3.609375 -4.28125 C 3.609375 -3.445312 3.804688 -2.820312 4.203125 -2.40625 C 4.597656 -1.988281 5.207031 -1.78125 6.03125 -1.78125 C 7.632812 -1.78125 8.4375 -2.613281 8.4375 -4.28125 L 8.4375 -11.359375 L 10.640625 -11.359375 L 10.640625 -4.265625 C 10.640625 -2.796875 10.257812 -1.691406 9.5 -0.953125 C 8.75 -0.210938 7.59375 0.15625 6.03125 0.15625 Z M 6.03125 0.15625 "/></g></g></g><g fill="#000000" fill-opacity="1"><g transform="translate(77.685966, 70.013591)"><g><path d="M 9.109375 -11.359375 L 9.109375 -9.484375 L 5.828125 -9.484375 L 5.828125 0 L 3.59375 0 L 3.59375 -9.484375 L 0.3125 -9.484375 L 0.3125 -11.359375 Z M 9.109375 -11.359375 "/></g></g></g><g fill="#000000" fill-opacity="1"><g transform="translate(87.108168, 70.013591)"><g><path d="M 6.234375 0 L 3.984375 0 L 3.984375 -4.46875 L 0.046875 -11.359375 L 2.46875 -11.359375 L 5.0625 -6.890625 L 5.25 -6.890625 L 7.796875 -11.359375 L 10.15625 -11.359375 L 6.234375 -4.46875 Z M 6.234375 0 "/></g></g></g></svg>