<svg xmlns="http://www.w3.org/2000/svg" xmlns:xlink="http://www.w3.org/1999/xlink" width="134px" zoomAndPan="magnify" viewBox="0 0 100.5 75.749998" height="101px" preserveAspectRatio="xMidYMid meet" version="1.0" transform="rotate(0) scale(1, 1)"><defs><g/><clipPath id="f44a7b4a2c"><path d="M 0 16.785156 L 36.566406 16.785156 L 36.566406 57.828125 L 0 57.828125 Z M 0 16.785156 " clip-rule="nonzero"/></clipPath></defs><g clip-path="url(#f44a7b4a2c)"><path fill="#2563eb" d="M 34.367188 37.242188 L 28.117188 37.242188 C 26.964844 37.242188 26.03125 38.175781 26.03125 39.324219 L 26.03125 45.574219 C 26.03125 45.613281 26.039062 45.648438 26.042969 45.683594 L 20.609375 51.121094 L 17.589844 51.121094 L 13.785156 47.316406 C 13.847656 47.085938 13.890625 46.851562 13.890625 46.605469 L 13.890625 38.269531 C 13.890625 38.023438 13.847656 37.789062 13.785156 37.5625 L 15.863281 35.484375 C 15.902344 35.484375 15.933594 35.492188 15.972656 35.492188 L 22.222656 35.492188 C 23.375 35.492188 24.308594 34.5625 24.308594 33.410156 L 24.308594 27.160156 C 24.308594 26.007812 23.375 25.074219 22.222656 25.074219 L 15.972656 25.074219 C 15.933594 25.074219 15.902344 25.085938 15.863281 25.085938 L 12.589844 21.8125 L 12.589844 18.21875 C 12.589844 17.453125 11.96875 16.832031 11.203125 16.832031 L 7.035156 16.832031 C 6.265625 16.832031 5.644531 17.453125 5.644531 18.21875 L 5.644531 22.386719 C 5.644531 23.152344 6.265625 23.777344 7.035156 23.777344 L 10.625 23.777344 L 13.898438 27.050781 C 13.898438 27.085938 13.890625 27.121094 13.890625 27.160156 L 13.890625 33.410156 C 13.890625 33.445312 13.898438 33.480469 13.898438 33.515625 L 11.820312 35.59375 C 11.59375 35.535156 11.359375 35.492188 11.109375 35.492188 L 2.777344 35.492188 C 1.242188 35.492188 0 36.734375 0 38.269531 L 0 46.605469 C 0 48.140625 1.242188 49.382812 2.777344 49.382812 L 11.113281 49.382812 C 11.359375 49.382812 11.59375 49.339844 11.824219 49.28125 L 15.625 53.082031 L 15.625 56.675781 C 15.625 57.441406 16.25 58.066406 17.015625 58.066406 L 21.183594 58.066406 C 21.949219 58.066406 22.570312 57.441406 22.570312 56.675781 L 22.570312 53.082031 L 28.007812 47.648438 C 28.046875 47.648438 28.078125 47.65625 28.117188 47.65625 L 34.367188 47.65625 C 35.519531 47.65625 36.453125 46.722656 36.453125 45.574219 L 36.453125 39.324219 C 36.453125 38.171875 35.519531 37.238281 34.367188 37.238281 Z M 34.367188 37.242188 " fill-opacity="1" fill-rule="nonzero"/></g><g fill="#ffffff" fill-opacity="1"><g transform="translate(40.701326, 43.777779)"><g><path d="M 13.078125 -13.875 C 13.359375 -13.601562 13.5 -13.257812 13.5 -12.84375 L 13.5 -7.546875 C 13.5 -7.378906 13.457031 -7.210938 13.375 -7.046875 C 13.289062 -6.890625 13.191406 -6.753906 13.078125 -6.640625 L 9.96875 -3.53125 C 9.6875 -3.25 9.351562 -3.109375 8.96875 -3.109375 L 4.46875 -3.109375 L 4.46875 -0.625 C 4.46875 -0.488281 4.414062 -0.367188 4.3125 -0.265625 C 4.207031 -0.160156 4.085938 -0.109375 3.953125 -0.109375 L 1.5625 -0.109375 C 1.414062 -0.109375 1.289062 -0.160156 1.1875 -0.265625 C 1.082031 -0.367188 1.03125 -0.488281 1.03125 -0.625 L 1.03125 -16.78125 C 1.03125 -16.925781 1.082031 -17.046875 1.1875 -17.140625 C 1.289062 -17.242188 1.414062 -17.296875 1.5625 -17.296875 L 9.0625 -17.296875 C 9.414062 -17.296875 9.71875 -17.171875 9.96875 -16.921875 Z M 9.859375 -8.4375 L 9.859375 -12.046875 C 9.859375 -12.179688 9.828125 -12.296875 9.765625 -12.390625 L 9.59375 -12.59375 L 8.546875 -13.703125 C 8.390625 -13.867188 8.191406 -13.953125 7.953125 -13.953125 L 4.46875 -13.953125 L 4.46875 -6.546875 L 8 -6.546875 C 8.15625 -6.546875 8.328125 -6.632812 8.515625 -6.8125 L 9.625 -7.859375 C 9.78125 -8.015625 9.859375 -8.207031 9.859375 -8.4375 Z M 9.859375 -8.4375 "/></g></g></g><g fill="#ffffff" fill-opacity="1"><g transform="translate(55.232208, 43.777779)"><g><path d="M 13.109375 -13.78125 C 13.367188 -13.519531 13.5 -13.21875 13.5 -12.875 L 13.5 -0.515625 C 13.5 -0.378906 13.445312 -0.257812 13.34375 -0.15625 C 13.238281 -0.0507812 13.117188 0 12.984375 0 L 10.65625 0 C 10.519531 0 10.398438 -0.0507812 10.296875 -0.15625 C 10.191406 -0.257812 10.140625 -0.378906 10.140625 -0.515625 L 10.140625 -5.671875 L 4.390625 -5.671875 L 4.390625 -0.515625 C 4.390625 -0.378906 4.335938 -0.257812 4.234375 -0.15625 C 4.128906 -0.0507812 4.007812 0 3.875 0 L 1.5625 0 C 1.414062 0 1.289062 -0.0507812 1.1875 -0.15625 C 1.082031 -0.257812 1.03125 -0.378906 1.03125 -0.515625 L 1.03125 -12.875 C 1.03125 -13.21875 1.160156 -13.519531 1.421875 -13.78125 L 4.46875 -16.890625 C 4.738281 -17.160156 5.082031 -17.296875 5.5 -17.296875 L 9.03125 -17.296875 C 9.445312 -17.296875 9.796875 -17.160156 10.078125 -16.890625 Z M 4.390625 -8.6875 L 10.140625 -8.6875 L 10.140625 -11.96875 C 10.140625 -12.207031 10.054688 -12.40625 9.890625 -12.5625 L 8.796875 -13.59375 L 8.578125 -13.78125 C 8.484375 -13.84375 8.367188 -13.875 8.234375 -13.875 L 6.296875 -13.875 C 6.140625 -13.875 6.023438 -13.84375 5.953125 -13.78125 L 5.75 -13.59375 L 4.640625 -12.5625 C 4.472656 -12.40625 4.390625 -12.207031 4.390625 -11.96875 Z M 4.390625 -8.6875 "/></g></g></g><g fill="#ffffff" fill-opacity="1"><g transform="translate(69.76309, 43.777779)"><g><path d="M 12.984375 -17.296875 C 13.117188 -17.296875 13.238281 -17.242188 13.34375 -17.140625 C 13.445312 -17.046875 13.5 -16.925781 13.5 -16.78125 L 13.5 -9.28125 C 13.5 -8.925781 13.367188 -8.625 13.109375 -8.375 L 9.375 -4.5625 C 9.257812 -4.445312 9.171875 -4.378906 9.109375 -4.359375 L 9.109375 -0.515625 C 9.109375 -0.378906 9.054688 -0.257812 8.953125 -0.15625 C 8.847656 -0.0507812 8.722656 0 8.578125 0 L 5.984375 0 C 5.847656 0 5.726562 -0.0507812 5.625 -0.15625 C 5.519531 -0.257812 5.46875 -0.378906 5.46875 -0.515625 L 5.46875 -4.328125 C 5.332031 -4.421875 5.226562 -4.5 5.15625 -4.5625 L 1.421875 -8.375 C 1.160156 -8.625 1.03125 -8.925781 1.03125 -9.28125 L 1.03125 -16.78125 C 1.03125 -16.925781 1.082031 -17.046875 1.1875 -17.140625 C 1.289062 -17.242188 1.414062 -17.296875 1.5625 -17.296875 L 3.875 -17.296875 C 4.007812 -17.296875 4.128906 -17.242188 4.234375 -17.140625 C 4.335938 -17.046875 4.390625 -16.925781 4.390625 -16.78125 L 4.390625 -10.171875 C 4.390625 -9.941406 4.472656 -9.75 4.640625 -9.59375 L 6.546875 -7.859375 L 6.75 -7.6875 C 6.820312 -7.613281 6.9375 -7.578125 7.09375 -7.578125 L 7.4375 -7.578125 C 7.582031 -7.578125 7.695312 -7.613281 7.78125 -7.6875 L 8 -7.859375 L 9.890625 -9.59375 C 10.054688 -9.75 10.140625 -9.941406 10.140625 -10.171875 L 10.140625 -16.78125 C 10.140625 -16.925781 10.191406 -17.046875 10.296875 -17.140625 C 10.398438 -17.242188 10.519531 -17.296875 10.65625 -17.296875 Z M 12.984375 -17.296875 "/></g></g></g><g fill="#ffffff" fill-opacity="1"><g transform="translate(84.300817, 43.777779)"><g/></g></g><g fill="#ffffff" fill-opacity="1"><g transform="translate(40.701326, 59.449808)"><g><path d="M 8.765625 -11.671875 C 8.859375 -11.671875 8.9375 -11.632812 9 -11.5625 C 9.070312 -11.5 9.109375 -11.421875 9.109375 -11.328125 L 9.109375 -9.71875 C 9.109375 -9.625 9.070312 -9.539062 9 -9.46875 C 8.9375 -9.394531 8.859375 -9.359375 8.765625 -9.359375 L 4.421875 -9.359375 C 4.304688 -9.359375 4.1875 -9.300781 4.0625 -9.1875 L 3.3125 -8.484375 C 3.207031 -8.367188 3.15625 -8.234375 3.15625 -8.078125 L 3.15625 -5.046875 L 7.609375 -5.046875 C 7.703125 -5.046875 7.785156 -5.007812 7.859375 -4.9375 C 7.929688 -4.863281 7.96875 -4.78125 7.96875 -4.6875 L 7.96875 -3.078125 C 7.96875 -2.984375 7.929688 -2.898438 7.859375 -2.828125 C 7.785156 -2.765625 7.703125 -2.734375 7.609375 -2.734375 L 3.15625 -2.734375 L 3.15625 -0.34375 C 3.15625 -0.25 3.117188 -0.164062 3.046875 -0.09375 C 2.972656 -0.03125 2.890625 0 2.796875 0 L 1.046875 0 C 0.953125 0 0.867188 -0.03125 0.796875 -0.09375 C 0.734375 -0.164062 0.703125 -0.25 0.703125 -0.34375 L 0.703125 -8.6875 C 0.703125 -8.8125 0.734375 -8.925781 0.796875 -9.03125 C 0.859375 -9.144531 0.921875 -9.234375 0.984375 -9.296875 L 3.078125 -11.40625 C 3.265625 -11.582031 3.492188 -11.671875 3.765625 -11.671875 Z M 8.765625 -11.671875 "/></g></g></g><g fill="#ffffff" fill-opacity="1"><g transform="translate(50.511068, 59.449808)"><g><path d="M 0.703125 -11.328125 C 0.703125 -11.421875 0.734375 -11.5 0.796875 -11.5625 C 0.867188 -11.632812 0.953125 -11.671875 1.046875 -11.671875 L 2.796875 -11.671875 C 2.890625 -11.671875 2.972656 -11.632812 3.046875 -11.5625 C 3.117188 -11.5 3.15625 -11.421875 3.15625 -11.328125 L 3.15625 -3.59375 C 3.15625 -3.4375 3.207031 -3.304688 3.3125 -3.203125 L 4.0625 -2.5 C 4.1875 -2.375 4.304688 -2.3125 4.421875 -2.3125 L 7.328125 -2.3125 C 7.421875 -2.3125 7.503906 -2.273438 7.578125 -2.203125 C 7.648438 -2.140625 7.6875 -2.0625 7.6875 -1.96875 L 7.6875 -0.34375 C 7.6875 -0.25 7.648438 -0.164062 7.578125 -0.09375 C 7.503906 -0.03125 7.421875 0 7.328125 0 L 3.765625 0 C 3.492188 0 3.265625 -0.09375 3.078125 -0.28125 L 0.984375 -2.375 C 0.921875 -2.457031 0.859375 -2.550781 0.796875 -2.65625 C 0.734375 -2.769531 0.703125 -2.878906 0.703125 -2.984375 Z M 0.703125 -11.328125 "/></g></g></g><g fill="#ffffff" fill-opacity="1"><g transform="translate(58.896059, 59.449808)"><g><path d="M 0.703125 -2.984375 L 0.703125 -8.6875 C 0.703125 -8.925781 0.785156 -9.128906 0.953125 -9.296875 L 3.015625 -11.40625 C 3.203125 -11.582031 3.4375 -11.671875 3.71875 -11.671875 L 6.09375 -11.671875 C 6.375 -11.671875 6.609375 -11.582031 6.796875 -11.40625 L 8.859375 -9.296875 C 9.023438 -9.128906 9.109375 -8.925781 9.109375 -8.6875 L 9.109375 -2.984375 C 9.109375 -2.753906 9.023438 -2.550781 8.859375 -2.375 L 6.796875 -0.28125 C 6.609375 -0.09375 6.375 0 6.09375 0 L 3.71875 0 C 3.4375 0 3.203125 -0.09375 3.015625 -0.28125 L 0.953125 -2.375 C 0.785156 -2.550781 0.703125 -2.753906 0.703125 -2.984375 Z M 2.96875 -3.59375 C 2.96875 -3.4375 3.019531 -3.304688 3.125 -3.203125 L 3.875 -2.5 L 4.015625 -2.375 C 4.066406 -2.332031 4.144531 -2.3125 4.25 -2.3125 L 5.5625 -2.3125 C 5.65625 -2.3125 5.734375 -2.332031 5.796875 -2.375 L 5.9375 -2.5 L 6.6875 -3.203125 C 6.789062 -3.304688 6.84375 -3.4375 6.84375 -3.59375 L 6.84375 -8.078125 C 6.84375 -8.234375 6.789062 -8.367188 6.6875 -8.484375 L 5.9375 -9.1875 L 5.796875 -9.296875 C 5.734375 -9.335938 5.65625 -9.359375 5.5625 -9.359375 L 4.25 -9.359375 C 4.144531 -9.359375 4.066406 -9.335938 4.015625 -9.296875 L 3.875 -9.1875 L 3.125 -8.484375 C 3.019531 -8.367188 2.96875 -8.234375 2.96875 -8.078125 Z M 2.96875 -3.59375 "/></g></g></g><g fill="#ffffff" fill-opacity="1"><g transform="translate(68.705801, 59.449808)"><g><path d="M 14.0625 -11.671875 C 14.15625 -11.671875 14.234375 -11.632812 14.296875 -11.5625 C 14.367188 -11.5 14.40625 -11.421875 14.40625 -11.328125 L 14.40625 -2.75 C 14.40625 -2.644531 14.378906 -2.535156 14.328125 -2.421875 C 14.285156 -2.316406 14.226562 -2.226562 14.15625 -2.15625 L 12.328125 -0.28125 C 12.140625 -0.09375 11.910156 0 11.640625 0 L 9.328125 0 C 9.046875 0 8.8125 -0.09375 8.625 -0.28125 L 7.6875 -1.265625 L 6.734375 -0.28125 C 6.546875 -0.09375 6.3125 0 6.03125 0 L 3.484375 0 C 3.203125 0 2.96875 -0.09375 2.78125 -0.28125 L 0.953125 -2.15625 C 0.890625 -2.226562 0.832031 -2.316406 0.78125 -2.421875 C 0.726562 -2.535156 0.703125 -2.644531 0.703125 -2.75 L 0.703125 -11.328125 C 0.703125 -11.421875 0.734375 -11.5 0.796875 -11.5625 C 0.867188 -11.632812 0.953125 -11.671875 1.046875 -11.671875 L 2.609375 -11.671875 C 2.703125 -11.671875 2.785156 -11.632812 2.859375 -11.5625 C 2.929688 -11.5 2.96875 -11.421875 2.96875 -11.328125 L 2.96875 -3.4375 C 2.96875 -3.28125 3.019531 -3.144531 3.125 -3.03125 L 3.859375 -2.375 C 3.929688 -2.332031 4.007812 -2.3125 4.09375 -2.3125 L 5.484375 -2.3125 C 5.578125 -2.3125 5.65625 -2.332031 5.71875 -2.375 L 6.375 -2.96875 C 6.488281 -3.0625 6.546875 -3.191406 6.546875 -3.359375 L 6.546875 -11.328125 C 6.546875 -11.421875 6.578125 -11.5 6.640625 -11.5625 C 6.710938 -11.632812 6.796875 -11.671875 6.890625 -11.671875 L 8.453125 -11.671875 C 8.546875 -11.671875 8.628906 -11.632812 8.703125 -11.5625 C 8.773438 -11.5 8.8125 -11.421875 8.8125 -11.328125 L 8.8125 -3.359375 C 8.8125 -3.191406 8.863281 -3.0625 8.96875 -2.96875 L 9.625 -2.375 C 9.695312 -2.332031 9.773438 -2.3125 9.859375 -2.3125 L 11.09375 -2.3125 C 11.1875 -2.3125 11.265625 -2.332031 11.328125 -2.375 L 11.984375 -2.96875 C 12.085938 -3.0625 12.140625 -3.191406 12.140625 -3.359375 L 12.140625 -11.328125 C 12.140625 -11.421875 12.175781 -11.5 12.25 -11.5625 C 12.320312 -11.632812 12.40625 -11.671875 12.5 -11.671875 Z M 14.0625 -11.671875 "/></g></g></g></svg>