<svg xmlns="http://www.w3.org/2000/svg" xmlns:xlink="http://www.w3.org/1999/xlink" width="191" zoomAndPan="magnify" viewBox="0 0 143.25 79.499998" height="106" preserveAspectRatio="xMidYMid meet" version="1.0"><defs><g/></defs><path fill="#000000" d="M 89.609375 16.148438 C 89.113281 16.148438 88.636719 16.242188 88.179688 16.433594 C 87.726562 16.621094 87.320312 16.890625 86.972656 17.238281 C 86.621094 17.589844 86.355469 17.992188 86.164062 18.449219 C 85.976562 18.90625 85.882812 19.378906 85.882812 19.875 L 85.882812 22.359375 L 93.335938 22.359375 L 93.335938 19.875 C 93.335938 19.378906 93.238281 18.90625 93.050781 18.449219 C 92.859375 17.992188 92.59375 17.589844 92.242188 17.238281 C 91.894531 16.890625 91.488281 16.621094 91.035156 16.433594 C 90.578125 16.242188 90.101562 16.148438 89.609375 16.148438 M 93.335938 24.84375 L 85.882812 24.84375 L 85.882812 45.339844 L 89.609375 50.929688 L 93.335938 45.339844 Z M 48.617188 11.179688 L 48.617188 48.445312 C 48.617188 48.941406 48.710938 49.414062 48.898438 49.871094 C 49.089844 50.328125 49.355469 50.730469 49.707031 51.082031 C 50.054688 51.429688 50.460938 51.699219 50.914062 51.886719 C 51.371094 52.078125 51.847656 52.171875 52.34375 52.171875 L 79.671875 52.171875 C 80.164062 52.171875 80.640625 52.078125 81.097656 51.886719 C 81.550781 51.699219 81.957031 51.429688 82.304688 51.082031 C 82.65625 50.730469 82.921875 50.328125 83.113281 49.871094 C 83.300781 49.414062 83.398438 48.941406 83.398438 48.445312 L 83.398438 11.179688 C 83.398438 10.683594 83.300781 10.210938 83.113281 9.753906 C 82.921875 9.296875 82.65625 8.894531 82.304688 8.542969 C 81.957031 8.195312 81.550781 7.925781 81.097656 7.738281 C 80.640625 7.546875 80.164062 7.453125 79.671875 7.453125 L 52.34375 7.453125 C 51.847656 7.453125 51.371094 7.546875 50.914062 7.738281 C 50.460938 7.925781 50.054688 8.195312 49.707031 8.542969 C 49.355469 8.894531 49.089844 9.296875 48.898438 9.753906 C 48.710938 10.210938 48.617188 10.683594 48.617188 11.179688 M 66.007812 18.632812 C 66.007812 18.46875 66.039062 18.308594 66.101562 18.15625 C 66.164062 18.003906 66.253906 17.871094 66.371094 17.753906 C 66.484375 17.636719 66.621094 17.546875 66.773438 17.484375 C 66.925781 17.421875 67.082031 17.390625 67.25 17.390625 L 77.1875 17.390625 C 77.351562 17.390625 77.507812 17.421875 77.660156 17.484375 C 77.8125 17.546875 77.949219 17.636719 78.0625 17.753906 C 78.179688 17.871094 78.269531 18.003906 78.332031 18.15625 C 78.394531 18.308594 78.429688 18.46875 78.429688 18.632812 C 78.429688 18.796875 78.394531 18.957031 78.332031 19.109375 C 78.269531 19.261719 78.179688 19.394531 78.0625 19.511719 C 77.949219 19.628906 77.8125 19.71875 77.660156 19.78125 C 77.507812 19.84375 77.351562 19.875 77.1875 19.875 L 67.25 19.875 C 67.082031 19.875 66.925781 19.84375 66.773438 19.78125 C 66.621094 19.71875 66.484375 19.628906 66.371094 19.511719 C 66.253906 19.394531 66.164062 19.261719 66.101562 19.109375 C 66.039062 18.957031 66.007812 18.796875 66.007812 18.632812 M 67.25 22.359375 C 67.082031 22.359375 66.925781 22.390625 66.773438 22.453125 C 66.621094 22.515625 66.484375 22.605469 66.371094 22.722656 C 66.253906 22.839844 66.164062 22.972656 66.101562 23.125 C 66.039062 23.277344 66.007812 23.4375 66.007812 23.601562 C 66.007812 23.765625 66.039062 23.925781 66.101562 24.078125 C 66.164062 24.230469 66.253906 24.363281 66.371094 24.480469 C 66.484375 24.597656 66.621094 24.6875 66.773438 24.75 C 66.925781 24.8125 67.082031 24.84375 67.25 24.84375 L 77.1875 24.84375 C 77.351562 24.84375 77.507812 24.8125 77.660156 24.75 C 77.8125 24.6875 77.949219 24.597656 78.0625 24.480469 C 78.179688 24.363281 78.269531 24.230469 78.332031 24.078125 C 78.394531 23.925781 78.429688 23.765625 78.429688 23.601562 C 78.429688 23.4375 78.394531 23.277344 78.332031 23.125 C 78.269531 22.972656 78.179688 22.839844 78.0625 22.722656 C 77.949219 22.605469 77.8125 22.515625 77.660156 22.453125 C 77.507812 22.390625 77.351562 22.359375 77.1875 22.359375 Z M 66.007812 34.78125 C 66.007812 34.617188 66.039062 34.457031 66.101562 34.304688 C 66.164062 34.152344 66.253906 34.019531 66.371094 33.902344 C 66.484375 33.785156 66.621094 33.695312 66.773438 33.632812 C 66.925781 33.570312 67.082031 33.539062 67.25 33.539062 L 77.1875 33.539062 C 77.351562 33.539062 77.507812 33.570312 77.660156 33.632812 C 77.8125 33.695312 77.949219 33.785156 78.0625 33.902344 C 78.179688 34.019531 78.269531 34.152344 78.332031 34.304688 C 78.394531 34.457031 78.429688 34.617188 78.429688 34.78125 C 78.429688 34.945312 78.394531 35.105469 78.332031 35.257812 C 78.269531 35.410156 78.179688 35.542969 78.0625 35.660156 C 77.949219 35.777344 77.8125 35.867188 77.660156 35.929688 C 77.507812 35.992188 77.351562 36.023438 77.1875 36.023438 L 67.25 36.023438 C 67.082031 36.023438 66.925781 35.992188 66.773438 35.929688 C 66.621094 35.867188 66.484375 35.777344 66.371094 35.660156 C 66.253906 35.542969 66.164062 35.410156 66.101562 35.257812 C 66.039062 35.105469 66.007812 34.945312 66.007812 34.78125 M 67.25 38.507812 C 67.082031 38.507812 66.925781 38.539062 66.773438 38.601562 C 66.621094 38.664062 66.484375 38.753906 66.371094 38.871094 C 66.253906 38.988281 66.164062 39.121094 66.101562 39.273438 C 66.039062 39.425781 66.007812 39.585938 66.007812 39.75 C 66.007812 39.914062 66.039062 40.074219 66.101562 40.226562 C 66.164062 40.378906 66.253906 40.511719 66.371094 40.628906 C 66.484375 40.746094 66.621094 40.835938 66.773438 40.898438 C 66.925781 40.960938 67.082031 40.992188 67.25 40.992188 L 77.1875 40.992188 C 77.351562 40.992188 77.507812 40.960938 77.660156 40.898438 C 77.8125 40.835938 77.949219 40.746094 78.0625 40.628906 C 78.179688 40.511719 78.269531 40.378906 78.332031 40.226562 C 78.394531 40.074219 78.429688 39.914062 78.429688 39.75 C 78.429688 39.585938 78.394531 39.425781 78.332031 39.273438 C 78.269531 39.121094 78.179688 38.988281 78.0625 38.871094 C 77.949219 38.753906 77.8125 38.664062 77.660156 38.601562 C 77.507812 38.539062 77.351562 38.507812 77.1875 38.507812 Z M 56.070312 34.78125 L 56.070312 38.507812 L 59.796875 38.507812 L 59.796875 34.78125 Z M 54.828125 32.296875 L 61.039062 32.296875 C 61.203125 32.296875 61.359375 32.328125 61.511719 32.390625 C 61.664062 32.453125 61.800781 32.542969 61.914062 32.660156 C 62.03125 32.777344 62.121094 32.910156 62.183594 33.0625 C 62.246094 33.214844 62.28125 33.375 62.28125 33.539062 L 62.28125 39.75 C 62.28125 39.914062 62.246094 40.074219 62.183594 40.226562 C 62.121094 40.378906 62.03125 40.511719 61.914062 40.628906 C 61.800781 40.746094 61.664062 40.835938 61.511719 40.898438 C 61.359375 40.960938 61.203125 40.992188 61.039062 40.992188 L 54.828125 40.992188 C 54.660156 40.992188 54.503906 40.960938 54.351562 40.898438 C 54.199219 40.835938 54.0625 40.746094 53.949219 40.628906 C 53.832031 40.511719 53.742188 40.378906 53.679688 40.226562 C 53.617188 40.074219 53.585938 39.914062 53.585938 39.75 L 53.585938 33.539062 C 53.585938 33.375 53.617188 33.214844 53.679688 33.0625 C 53.742188 32.910156 53.832031 32.777344 53.949219 32.660156 C 54.0625 32.542969 54.199219 32.453125 54.351562 32.390625 C 54.503906 32.328125 54.660156 32.296875 54.828125 32.296875 M 63.15625 19.511719 C 63.269531 19.394531 63.359375 19.257812 63.417969 19.109375 C 63.476562 18.957031 63.507812 18.800781 63.507812 18.636719 C 63.503906 18.472656 63.472656 18.316406 63.410156 18.167969 C 63.347656 18.015625 63.257812 17.886719 63.140625 17.769531 C 63.027344 17.65625 62.894531 17.566406 62.746094 17.503906 C 62.59375 17.441406 62.4375 17.40625 62.273438 17.40625 C 62.113281 17.40625 61.953125 17.433594 61.804688 17.496094 C 61.652344 17.554688 61.519531 17.640625 61.402344 17.753906 L 57.3125 21.84375 L 55.703125 20.238281 C 55.585938 20.125 55.453125 20.039062 55.300781 19.980469 C 55.152344 19.917969 54.992188 19.890625 54.832031 19.890625 C 54.667969 19.890625 54.511719 19.925781 54.359375 19.988281 C 54.210938 20.050781 54.078125 20.140625 53.964844 20.253906 C 53.847656 20.371094 53.757812 20.5 53.695312 20.652344 C 53.632812 20.800781 53.601562 20.957031 53.597656 21.121094 C 53.597656 21.285156 53.628906 21.441406 53.6875 21.59375 C 53.75 21.742188 53.835938 21.878906 53.949219 21.996094 L 57.3125 25.359375 Z M 63.15625 19.511719 " fill-opacity="1" fill-rule="evenodd"/><g fill="#000000" fill-opacity="1"><g transform="translate(3.963061, 70.756365)"><g><path d="M 5.859375 -11.34375 C 6.671875 -11.34375 7.363281 -11.191406 7.9375 -10.890625 C 8.519531 -10.597656 8.957031 -10.179688 9.25 -9.640625 C 9.539062 -9.109375 9.6875 -8.488281 9.6875 -7.78125 C 9.6875 -7.070312 9.539062 -6.453125 9.25 -5.921875 C 8.957031 -5.390625 8.519531 -4.972656 7.9375 -4.671875 C 7.363281 -4.378906 6.671875 -4.234375 5.859375 -4.234375 L 3.71875 -4.234375 L 3.71875 0 L 1.46875 0 L 1.46875 -11.34375 Z M 5.5625 -6 C 6.8125 -6 7.4375 -6.59375 7.4375 -7.78125 C 7.4375 -8.96875 6.8125 -9.5625 5.5625 -9.5625 L 3.71875 -9.5625 L 3.71875 -6 Z M 5.5625 -6 "/></g></g></g><g fill="#000000" fill-opacity="1"><g transform="translate(14.332793, 70.756365)"><g><path d="M 10.890625 0 L 8.53125 0 L 7.671875 -2.609375 L 3.328125 -2.609375 L 2.46875 0 L 0.171875 0 L 4.09375 -11.34375 L 6.96875 -11.34375 Z M 5.390625 -8.984375 L 3.9375 -4.5 L 7.046875 -4.5 L 5.59375 -8.984375 Z M 5.390625 -8.984375 "/></g></g></g><g fill="#000000" fill-opacity="1"><g transform="translate(25.39333, 70.756365)"><g><path d="M 5.859375 -11.34375 C 6.671875 -11.34375 7.363281 -11.191406 7.9375 -10.890625 C 8.519531 -10.597656 8.957031 -10.179688 9.25 -9.640625 C 9.539062 -9.109375 9.6875 -8.488281 9.6875 -7.78125 C 9.6875 -7.070312 9.539062 -6.453125 9.25 -5.921875 C 8.957031 -5.390625 8.519531 -4.972656 7.9375 -4.671875 C 7.363281 -4.378906 6.671875 -4.234375 5.859375 -4.234375 L 3.71875 -4.234375 L 3.71875 0 L 1.46875 0 L 1.46875 -11.34375 Z M 5.5625 -6 C 6.8125 -6 7.4375 -6.59375 7.4375 -7.78125 C 7.4375 -8.96875 6.8125 -9.5625 5.5625 -9.5625 L 3.71875 -9.5625 L 3.71875 -6 Z M 5.5625 -6 "/></g></g></g><g fill="#000000" fill-opacity="1"><g transform="translate(35.763062, 70.756365)"><g><path d="M 3.71875 -4.984375 L 3.71875 -1.875 L 9.125 -1.875 L 9.125 0 L 1.46875 0 L 1.46875 -11.34375 L 9.015625 -11.34375 L 9.015625 -9.46875 L 3.71875 -9.46875 L 3.71875 -6.8125 L 8.34375 -6.8125 L 8.34375 -4.984375 Z M 3.71875 -4.984375 "/></g></g></g><g fill="#000000" fill-opacity="1"><g transform="translate(45.51962, 70.756365)"><g><path d="M 1.46875 0 L 1.46875 -11.34375 L 6.03125 -11.34375 C 7.207031 -11.34375 8.09375 -11.070312 8.6875 -10.53125 C 9.28125 -9.988281 9.578125 -9.242188 9.578125 -8.296875 C 9.578125 -7.609375 9.398438 -7.039062 9.046875 -6.59375 C 8.703125 -6.15625 8.1875 -5.820312 7.5 -5.59375 L 7.5 -5.4375 C 7.851562 -5.28125 8.140625 -5.046875 8.359375 -4.734375 C 8.578125 -4.429688 8.785156 -3.984375 8.984375 -3.390625 L 10.125 0 L 7.8125 0 L 6.703125 -3.390625 C 6.585938 -3.734375 6.457031 -4 6.3125 -4.1875 C 6.175781 -4.375 6 -4.507812 5.78125 -4.59375 C 5.5625 -4.675781 5.273438 -4.71875 4.921875 -4.71875 L 3.71875 -4.71875 L 3.71875 0 Z M 5.75 -6.5 C 6.84375 -6.5 7.390625 -7.003906 7.390625 -8.015625 C 7.390625 -9.046875 6.84375 -9.5625 5.75 -9.5625 L 3.71875 -9.5625 L 3.71875 -6.5 Z M 5.75 -6.5 "/></g></g></g><g fill="#000000" fill-opacity="1"><g transform="translate(56.129974, 70.756365)"><g/></g></g><g fill="#000000" fill-opacity="1"><g transform="translate(59.878917, 70.756365)"><g><path d="M 3.53125 0 L 1.46875 0 L 1.46875 -11.34375 L 4.40625 -11.34375 L 7.28125 -3 L 7.4375 -3 L 10.296875 -11.34375 L 13.15625 -11.34375 L 13.15625 0 L 11.03125 0 L 11.03125 -7.5 L 10.84375 -7.53125 L 8.21875 0 L 6.34375 0 L 3.71875 -7.53125 L 3.53125 -7.5 Z M 3.53125 0 "/></g></g></g><g fill="#000000" fill-opacity="1"><g transform="translate(74.525394, 70.756365)"><g><path d="M 10.890625 0 L 8.53125 0 L 7.671875 -2.609375 L 3.328125 -2.609375 L 2.46875 0 L 0.171875 0 L 4.09375 -11.34375 L 6.96875 -11.34375 Z M 5.390625 -8.984375 L 3.9375 -4.5 L 7.046875 -4.5 L 5.59375 -8.984375 Z M 5.390625 -8.984375 "/></g></g></g><g fill="#000000" fill-opacity="1"><g transform="translate(85.58593, 70.756365)"><g><path d="M 1.46875 0 L 1.46875 -11.34375 L 6.03125 -11.34375 C 7.207031 -11.34375 8.09375 -11.070312 8.6875 -10.53125 C 9.28125 -9.988281 9.578125 -9.242188 9.578125 -8.296875 C 9.578125 -7.609375 9.398438 -7.039062 9.046875 -6.59375 C 8.703125 -6.15625 8.1875 -5.820312 7.5 -5.59375 L 7.5 -5.4375 C 7.851562 -5.28125 8.140625 -5.046875 8.359375 -4.734375 C 8.578125 -4.429688 8.785156 -3.984375 8.984375 -3.390625 L 10.125 0 L 7.8125 0 L 6.703125 -3.390625 C 6.585938 -3.734375 6.457031 -4 6.3125 -4.1875 C 6.175781 -4.375 6 -4.507812 5.78125 -4.59375 C 5.5625 -4.675781 5.273438 -4.71875 4.921875 -4.71875 L 3.71875 -4.71875 L 3.71875 0 Z M 5.75 -6.5 C 6.84375 -6.5 7.390625 -7.003906 7.390625 -8.015625 C 7.390625 -9.046875 6.84375 -9.5625 5.75 -9.5625 L 3.71875 -9.5625 L 3.71875 -6.5 Z M 5.75 -6.5 "/></g></g></g><g fill="#000000" fill-opacity="1"><g transform="translate(96.196284, 70.756365)"><g><path d="M 1.46875 0 L 1.46875 -11.34375 L 3.71875 -11.34375 L 3.71875 -6.71875 L 3.96875 -6.71875 L 7.75 -11.34375 L 10.046875 -11.34375 L 10.046875 -11.15625 L 5.875 -5.984375 L 10.484375 -0.1875 L 10.484375 0 L 7.953125 0 L 3.96875 -4.890625 L 3.71875 -4.890625 L 3.71875 0 Z M 1.46875 0 "/></g></g></g><g fill="#000000" fill-opacity="1"><g transform="translate(106.682448, 70.756365)"><g><path d="M 3.71875 0 L 1.46875 0 L 1.46875 -11.34375 L 3.71875 -11.34375 Z M 3.71875 0 "/></g></g></g><g fill="#000000" fill-opacity="1"><g transform="translate(111.882838, 70.756365)"><g><path d="M 3.640625 0 L 1.46875 0 L 1.46875 -11.34375 L 4.046875 -11.34375 L 8.59375 -4.03125 L 8.796875 -4.0625 L 8.796875 -11.34375 L 10.953125 -11.34375 L 10.953125 0 L 8.65625 0 L 3.84375 -7.8125 L 3.640625 -7.78125 Z M 3.640625 0 "/></g></g></g><g fill="#000000" fill-opacity="1"><g transform="translate(124.324971, 70.756365)"><g><path d="M 5.515625 0.15625 C 4.566406 0.15625 3.742188 -0.0546875 3.046875 -0.484375 C 2.359375 -0.921875 1.828125 -1.570312 1.453125 -2.4375 C 1.078125 -3.3125 0.890625 -4.390625 0.890625 -5.671875 C 0.890625 -6.960938 1.113281 -8.039062 1.5625 -8.90625 C 2.019531 -9.78125 2.644531 -10.429688 3.4375 -10.859375 C 4.238281 -11.285156 5.164062 -11.5 6.21875 -11.5 C 7.3125 -11.5 8.238281 -11.296875 9 -10.890625 C 9.769531 -10.492188 10.304688 -9.894531 10.609375 -9.09375 L 8.984375 -8.109375 L 8.78125 -8.109375 C 8.550781 -8.617188 8.222656 -8.988281 7.796875 -9.21875 C 7.378906 -9.457031 6.851562 -9.578125 6.21875 -9.578125 C 5.238281 -9.578125 4.488281 -9.265625 3.96875 -8.640625 C 3.457031 -8.023438 3.203125 -7.035156 3.203125 -5.671875 C 3.203125 -4.296875 3.441406 -3.296875 3.921875 -2.671875 C 4.410156 -2.054688 5.128906 -1.75 6.078125 -1.75 C 6.890625 -1.75 7.488281 -1.929688 7.875 -2.296875 C 8.269531 -2.671875 8.46875 -3.222656 8.46875 -3.953125 L 8.46875 -4.4375 L 5.78125 -4.4375 L 5.78125 -6.265625 L 10.6875 -6.265625 L 10.6875 0 L 8.546875 0 L 8.546875 -1.515625 L 8.390625 -1.546875 C 8.148438 -1.003906 7.796875 -0.582031 7.328125 -0.28125 C 6.859375 0.0078125 6.253906 0.15625 5.515625 0.15625 Z M 5.515625 0.15625 "/></g></g></g></svg>