<svg xmlns="http://www.w3.org/2000/svg" xmlns:xlink="http://www.w3.org/1999/xlink" width="124" zoomAndPan="magnify" viewBox="0 0 93 82.499998" height="110" preserveAspectRatio="xMidYMid meet" version="1.0"><defs><g/></defs><path fill="#000000" d="M 23.90625 29.820312 C 23.90625 29.085938 23.941406 28.355469 24.015625 27.628906 C 24.085938 26.898438 24.195312 26.175781 24.335938 25.457031 C 24.480469 24.738281 24.65625 24.027344 24.871094 23.328125 C 25.082031 22.625 25.328125 21.9375 25.609375 21.261719 C 25.890625 20.585938 26.203125 19.921875 26.546875 19.277344 C 26.894531 18.628906 27.269531 18.003906 27.675781 17.394531 C 28.082031 16.785156 28.519531 16.199219 28.984375 15.632812 C 29.449219 15.066406 29.9375 14.523438 30.457031 14.003906 C 30.976562 13.488281 31.515625 12.996094 32.082031 12.53125 C 32.648438 12.066406 33.238281 11.628906 33.847656 11.222656 C 34.453125 10.816406 35.082031 10.441406 35.726562 10.09375 C 36.375 9.75 37.035156 9.4375 37.710938 9.15625 C 38.390625 8.875 39.078125 8.628906 39.777344 8.417969 C 40.480469 8.207031 41.191406 8.027344 41.90625 7.882812 C 42.625 7.742188 43.351562 7.632812 44.078125 7.5625 C 44.808594 7.492188 45.539062 7.453125 46.269531 7.453125 C 47.003906 7.453125 47.734375 7.492188 48.464844 7.5625 C 49.191406 7.632812 49.914062 7.742188 50.632812 7.882812 C 51.351562 8.027344 52.0625 8.207031 52.761719 8.417969 C 53.464844 8.628906 54.152344 8.875 54.828125 9.15625 C 55.507812 9.4375 56.167969 9.75 56.8125 10.09375 C 57.460938 10.441406 58.085938 10.816406 58.695312 11.222656 C 59.304688 11.628906 59.894531 12.066406 60.457031 12.53125 C 61.023438 12.996094 61.566406 13.488281 62.085938 14.003906 C 62.601562 14.523438 63.09375 15.066406 63.558594 15.632812 C 64.023438 16.199219 64.460938 16.785156 64.867188 17.394531 C 65.273438 18.003906 65.648438 18.628906 65.996094 19.277344 C 66.339844 19.921875 66.652344 20.585938 66.933594 21.261719 C 67.214844 21.9375 67.460938 22.625 67.671875 23.328125 C 67.886719 24.027344 68.0625 24.738281 68.207031 25.457031 C 68.347656 26.175781 68.457031 26.898438 68.527344 27.628906 C 68.597656 28.355469 68.636719 29.085938 68.636719 29.820312 L 72.363281 29.820312 C 72.363281 28.964844 72.320312 28.113281 72.238281 27.261719 C 72.152344 26.410156 72.027344 25.566406 71.863281 24.730469 C 71.695312 23.890625 71.488281 23.0625 71.238281 22.246094 C 70.992188 21.425781 70.703125 20.625 70.375 19.835938 C 70.050781 19.042969 69.683594 18.273438 69.28125 17.519531 C 68.878906 16.765625 68.441406 16.035156 67.964844 15.324219 C 67.492188 14.613281 66.984375 13.925781 66.441406 13.265625 C 65.898438 12.605469 65.324219 11.972656 64.722656 11.371094 C 64.117188 10.765625 63.484375 10.191406 62.824219 9.648438 C 62.164062 9.109375 61.476562 8.597656 60.765625 8.125 C 60.054688 7.648438 59.324219 7.210938 58.570312 6.808594 C 57.816406 6.40625 57.046875 6.039062 56.257812 5.714844 C 55.464844 5.386719 54.664062 5.097656 53.84375 4.851562 C 53.027344 4.601562 52.199219 4.394531 51.359375 4.230469 C 50.523438 4.0625 49.679688 3.9375 48.828125 3.851562 C 47.976562 3.769531 47.125 3.726562 46.269531 3.726562 C 45.417969 3.726562 44.5625 3.769531 43.714844 3.851562 C 42.863281 3.9375 42.019531 4.0625 41.179688 4.230469 C 40.34375 4.394531 39.515625 4.601562 38.695312 4.851562 C 37.878906 5.097656 37.074219 5.386719 36.285156 5.714844 C 35.496094 6.039062 34.726562 6.40625 33.972656 6.808594 C 33.21875 7.210938 32.484375 7.648438 31.773438 8.125 C 31.066406 8.597656 30.378906 9.109375 29.71875 9.648438 C 29.058594 10.191406 28.425781 10.765625 27.820312 11.371094 C 27.21875 11.972656 26.644531 12.605469 26.101562 13.265625 C 25.558594 13.925781 25.050781 14.613281 24.578125 15.324219 C 24.101562 16.035156 23.664062 16.765625 23.261719 17.519531 C 22.855469 18.273438 22.492188 19.042969 22.164062 19.835938 C 21.839844 20.625 21.550781 21.425781 21.300781 22.246094 C 21.054688 23.0625 20.847656 23.890625 20.679688 24.730469 C 20.515625 25.566406 20.386719 26.410156 20.304688 27.261719 C 20.222656 28.113281 20.179688 28.964844 20.179688 29.820312 C 20.179688 30.671875 20.222656 31.527344 20.304688 32.375 C 20.386719 33.226562 20.515625 34.070312 20.679688 34.910156 C 20.847656 35.746094 21.054688 36.574219 21.300781 37.394531 C 21.550781 38.210938 21.839844 39.015625 22.164062 39.804688 C 22.492188 40.59375 22.855469 41.367188 23.261719 42.117188 C 23.664062 42.871094 24.101562 43.605469 24.578125 44.316406 C 25.050781 45.027344 25.558594 45.710938 26.101562 46.371094 C 26.644531 47.03125 27.21875 47.664062 27.820312 48.269531 C 28.425781 48.875 29.058594 49.445312 29.71875 49.988281 C 30.378906 50.53125 31.066406 51.039062 31.773438 51.515625 C 32.484375 51.988281 33.21875 52.425781 33.972656 52.832031 C 34.726562 53.234375 35.496094 53.597656 36.285156 53.925781 C 37.074219 54.253906 37.878906 54.539062 38.695312 54.789062 C 39.515625 55.035156 40.34375 55.242188 41.179688 55.410156 C 42.019531 55.578125 42.863281 55.703125 43.714844 55.785156 C 44.5625 55.871094 45.417969 55.910156 46.269531 55.910156 L 46.269531 52.183594 C 45.539062 52.183594 44.808594 52.148438 44.078125 52.074219 C 43.351562 52.003906 42.625 51.898438 41.90625 51.753906 C 41.191406 51.609375 40.480469 51.433594 39.777344 51.222656 C 39.078125 51.007812 38.390625 50.761719 37.710938 50.480469 C 37.035156 50.199219 36.375 49.886719 35.730469 49.542969 C 35.082031 49.199219 34.453125 48.820312 33.847656 48.414062 C 33.238281 48.007812 32.648438 47.570312 32.082031 47.105469 C 31.515625 46.640625 30.976562 46.152344 30.457031 45.632812 C 29.9375 45.117188 29.449219 44.574219 28.984375 44.007812 C 28.519531 43.441406 28.082031 42.851562 27.675781 42.246094 C 27.269531 41.636719 26.894531 41.007812 26.546875 40.363281 C 26.203125 39.714844 25.890625 39.054688 25.609375 38.378906 C 25.328125 37.699219 25.082031 37.011719 24.871094 36.3125 C 24.65625 35.609375 24.480469 34.902344 24.335938 34.183594 C 24.195312 33.464844 24.085938 32.742188 24.015625 32.011719 C 23.941406 31.28125 23.90625 30.550781 23.90625 29.820312 M 44.40625 14.910156 L 44.40625 27.957031 L 31.363281 27.957031 L 31.363281 31.683594 L 48.132812 31.683594 L 48.132812 14.910156 Z M 59.316406 29.820312 C 58.460938 29.820312 57.613281 29.902344 56.773438 30.070312 C 55.933594 30.238281 55.117188 30.484375 54.324219 30.8125 C 53.53125 31.140625 52.78125 31.542969 52.070312 32.019531 C 51.355469 32.492188 50.699219 33.035156 50.09375 33.640625 C 49.488281 34.246094 48.945312 34.90625 48.46875 35.617188 C 47.992188 36.328125 47.59375 37.082031 47.265625 37.871094 C 46.9375 38.664062 46.6875 39.480469 46.523438 40.320312 C 46.355469 41.160156 46.269531 42.007812 46.269531 42.863281 C 46.269531 43.722656 46.355469 44.570312 46.523438 45.410156 C 46.6875 46.25 46.9375 47.066406 47.265625 47.859375 C 47.59375 48.648438 47.992188 49.402344 48.46875 50.113281 C 48.945312 50.824219 49.488281 51.484375 50.09375 52.089844 C 50.699219 52.695312 51.355469 53.238281 52.070312 53.710938 C 52.78125 54.1875 53.53125 54.589844 54.324219 54.917969 C 55.117188 55.246094 55.933594 55.492188 56.773438 55.660156 C 57.613281 55.828125 58.460938 55.910156 59.316406 55.910156 C 60.171875 55.910156 61.023438 55.828125 61.863281 55.660156 C 62.703125 55.492188 63.519531 55.246094 64.308594 54.917969 C 65.101562 54.589844 65.851562 54.1875 66.566406 53.710938 C 67.277344 53.238281 67.9375 52.695312 68.542969 52.089844 C 69.148438 51.484375 69.6875 50.824219 70.164062 50.113281 C 70.640625 49.402344 71.042969 48.648438 71.371094 47.859375 C 71.699219 47.066406 71.945312 46.25 72.113281 45.410156 C 72.28125 44.570312 72.363281 43.722656 72.363281 42.863281 C 72.363281 42.007812 72.28125 41.160156 72.113281 40.320312 C 71.945312 39.480469 71.699219 38.664062 71.371094 37.871094 C 71.042969 37.082031 70.640625 36.328125 70.164062 35.617188 C 69.6875 34.90625 69.148438 34.246094 68.542969 33.640625 C 67.9375 33.035156 67.277344 32.492188 66.566406 32.019531 C 65.851562 31.542969 65.101562 31.140625 64.308594 30.8125 C 63.519531 30.484375 62.703125 30.238281 61.863281 30.070312 C 61.023438 29.902344 60.171875 29.820312 59.316406 29.820312 M 57.453125 35.410156 L 57.453125 42.863281 L 61.179688 42.863281 L 61.179688 35.410156 Z M 59.316406 44.730469 C 58.945312 44.730469 58.589844 44.800781 58.246094 44.941406 C 57.90625 45.082031 57.601562 45.285156 57.339844 45.546875 C 57.078125 45.808594 56.875 46.113281 56.734375 46.453125 C 56.59375 46.796875 56.519531 47.152344 56.519531 47.523438 C 56.519531 47.894531 56.59375 48.25 56.734375 48.59375 C 56.875 48.9375 57.078125 49.238281 57.339844 49.5 C 57.601562 49.761719 57.90625 49.964844 58.246094 50.105469 C 58.589844 50.25 58.945312 50.320312 59.316406 50.320312 C 59.6875 50.320312 60.042969 50.25 60.386719 50.105469 C 60.730469 49.964844 61.03125 49.761719 61.292969 49.5 C 61.554688 49.238281 61.757812 48.9375 61.898438 48.59375 C 62.042969 48.25 62.113281 47.894531 62.113281 47.523438 C 62.113281 47.152344 62.042969 46.796875 61.898438 46.453125 C 61.757812 46.113281 61.554688 45.808594 61.292969 45.546875 C 61.03125 45.285156 60.730469 45.082031 60.386719 44.941406 C 60.042969 44.800781 59.6875 44.730469 59.316406 44.730469 " fill-opacity="1" fill-rule="evenodd"/><g fill="#000000" fill-opacity="1"><g transform="translate(4.169064, 74.051212)"><g><path d="M 6.1875 0.15625 C 5.144531 0.15625 4.226562 -0.0507812 3.4375 -0.46875 C 2.644531 -0.894531 2.019531 -1.546875 1.5625 -2.421875 C 1.113281 -3.296875 0.890625 -4.378906 0.890625 -5.671875 C 0.890625 -6.972656 1.113281 -8.0625 1.5625 -8.9375 C 2.019531 -9.8125 2.644531 -10.457031 3.4375 -10.875 C 4.226562 -11.300781 5.144531 -11.515625 6.1875 -11.515625 C 7.226562 -11.515625 8.144531 -11.300781 8.9375 -10.875 C 9.726562 -10.457031 10.347656 -9.8125 10.796875 -8.9375 C 11.242188 -8.0625 11.46875 -6.972656 11.46875 -5.671875 C 11.46875 -4.378906 11.242188 -3.296875 10.796875 -2.421875 C 10.347656 -1.546875 9.726562 -0.894531 8.9375 -0.46875 C 8.144531 -0.0507812 7.226562 0.15625 6.1875 0.15625 Z M 6.1875 -1.78125 C 7.15625 -1.78125 7.890625 -2.085938 8.390625 -2.703125 C 8.898438 -3.328125 9.15625 -4.316406 9.15625 -5.671875 C 9.15625 -7.035156 8.898438 -8.023438 8.390625 -8.640625 C 7.890625 -9.265625 7.15625 -9.578125 6.1875 -9.578125 C 5.21875 -9.578125 4.476562 -9.265625 3.96875 -8.640625 C 3.457031 -8.023438 3.203125 -7.035156 3.203125 -5.671875 C 3.203125 -4.316406 3.457031 -3.328125 3.96875 -2.703125 C 4.476562 -2.085938 5.21875 -1.78125 6.1875 -1.78125 Z M 6.1875 -1.78125 "/></g></g></g><g fill="#000000" fill-opacity="1"><g transform="translate(16.53639, 74.051212)"><g><path d="M 6.75 0 L 4.03125 0 L 0.203125 -11.359375 L 2.59375 -11.359375 L 5.34375 -2.890625 L 5.53125 -2.890625 L 8.25 -11.359375 L 10.578125 -11.359375 Z M 6.75 0 "/></g></g></g><g fill="#000000" fill-opacity="1"><g transform="translate(27.312184, 74.051212)"><g><path d="M 3.71875 -4.984375 L 3.71875 -1.875 L 9.140625 -1.875 L 9.140625 0 L 1.46875 0 L 1.46875 -11.359375 L 9.015625 -11.359375 L 9.015625 -9.46875 L 3.71875 -9.46875 L 3.71875 -6.8125 L 8.34375 -6.8125 L 8.34375 -4.984375 Z M 3.71875 -4.984375 "/></g></g></g><g fill="#000000" fill-opacity="1"><g transform="translate(37.07096, 74.051212)"><g><path d="M 1.46875 0 L 1.46875 -11.359375 L 6.03125 -11.359375 C 7.207031 -11.359375 8.09375 -11.085938 8.6875 -10.546875 C 9.289062 -10.003906 9.59375 -9.253906 9.59375 -8.296875 C 9.59375 -7.609375 9.414062 -7.046875 9.0625 -6.609375 C 8.71875 -6.171875 8.195312 -5.832031 7.5 -5.59375 L 7.5 -5.4375 C 7.851562 -5.28125 8.140625 -5.046875 8.359375 -4.734375 C 8.585938 -4.429688 8.800781 -3.984375 9 -3.390625 L 10.125 0 L 7.828125 0 L 6.703125 -3.390625 C 6.597656 -3.734375 6.472656 -4 6.328125 -4.1875 C 6.179688 -4.375 6 -4.507812 5.78125 -4.59375 C 5.5625 -4.6875 5.273438 -4.734375 4.921875 -4.734375 L 3.71875 -4.734375 L 3.71875 0 Z M 5.765625 -6.515625 C 6.847656 -6.515625 7.390625 -7.019531 7.390625 -8.03125 C 7.390625 -9.0625 6.847656 -9.578125 5.765625 -9.578125 L 3.71875 -9.578125 L 3.71875 -6.515625 Z M 5.765625 -6.515625 "/></g></g></g><g fill="#000000" fill-opacity="1"><g transform="translate(47.683725, 74.051212)"><g><path d="M 9.109375 -11.359375 L 9.109375 -9.46875 L 5.828125 -9.46875 L 5.828125 0 L 3.59375 0 L 3.59375 -9.46875 L 0.3125 -9.46875 L 0.3125 -11.359375 Z M 9.109375 -11.359375 "/></g></g></g><g fill="#000000" fill-opacity="1"><g transform="translate(57.093136, 74.051212)"><g><path d="M 3.71875 0 L 1.46875 0 L 1.46875 -11.359375 L 3.71875 -11.359375 Z M 3.71875 0 "/></g></g></g><g fill="#000000" fill-opacity="1"><g transform="translate(62.294708, 74.051212)"><g><path d="M 3.53125 0 L 1.46875 0 L 1.46875 -11.359375 L 4.40625 -11.359375 L 7.28125 -3 L 7.453125 -3 L 10.3125 -11.359375 L 13.171875 -11.359375 L 13.171875 0 L 11.046875 0 L 11.046875 -7.5 L 10.84375 -7.53125 L 8.21875 0 L 6.359375 0 L 3.734375 -7.53125 L 3.53125 -7.5 Z M 3.53125 0 "/></g></g></g><g fill="#000000" fill-opacity="1"><g transform="translate(76.944514, 74.051212)"><g><path d="M 3.71875 -4.984375 L 3.71875 -1.875 L 9.140625 -1.875 L 9.140625 0 L 1.46875 0 L 1.46875 -11.359375 L 9.015625 -11.359375 L 9.015625 -9.46875 L 3.71875 -9.46875 L 3.71875 -6.8125 L 8.34375 -6.8125 L 8.34375 -4.984375 Z M 3.71875 -4.984375 "/></g></g></g></svg>