<svg xmlns="http://www.w3.org/2000/svg" xmlns:xlink="http://www.w3.org/1999/xlink" width="142" zoomAndPan="magnify" viewBox="0 0 106.5 80.999996" height="108" preserveAspectRatio="xMidYMid meet" version="1.0"><defs><g/></defs><path fill="#000000" d="M 52.917969 31.292969 C 52.347656 31.292969 51.78125 31.347656 51.21875 31.460938 C 50.660156 31.570312 50.113281 31.738281 49.585938 31.957031 C 49.058594 32.175781 48.554688 32.441406 48.082031 32.761719 C 47.605469 33.078125 47.164062 33.441406 46.761719 33.84375 C 46.355469 34.25 45.996094 34.6875 45.675781 35.164062 C 45.359375 35.640625 45.089844 36.140625 44.871094 36.667969 C 44.652344 37.199219 44.488281 37.742188 44.375 38.304688 C 44.265625 38.863281 44.210938 39.429688 44.210938 40.003906 C 44.210938 40.574219 44.265625 41.140625 44.375 41.703125 C 44.488281 42.261719 44.652344 42.808594 44.871094 43.335938 C 45.089844 43.863281 45.359375 44.367188 45.675781 44.839844 C 45.996094 45.316406 46.355469 45.757812 46.761719 46.160156 C 47.164062 46.566406 47.605469 46.925781 48.082031 47.242188 C 48.554688 47.5625 49.058594 47.828125 49.585938 48.046875 C 50.113281 48.265625 50.660156 48.433594 51.21875 48.542969 C 51.78125 48.65625 52.347656 48.710938 52.917969 48.710938 C 53.492188 48.710938 54.058594 48.65625 54.617188 48.542969 C 55.179688 48.433594 55.722656 48.265625 56.25 48.046875 C 56.78125 47.828125 57.28125 47.5625 57.757812 47.242188 C 58.234375 46.925781 58.671875 46.566406 59.078125 46.160156 C 59.480469 45.757812 59.84375 45.316406 60.160156 44.839844 C 60.476562 44.367188 60.746094 43.863281 60.964844 43.335938 C 61.183594 42.808594 61.347656 42.261719 61.460938 41.703125 C 61.570312 41.140625 61.628906 40.574219 61.628906 40.003906 C 61.628906 39.429688 61.570312 38.863281 61.460938 38.304688 C 61.347656 37.742188 61.183594 37.199219 60.964844 36.667969 C 60.746094 36.140625 60.476562 35.640625 60.160156 35.164062 C 59.84375 34.6875 59.480469 34.25 59.078125 33.84375 C 58.671875 33.441406 58.234375 33.078125 57.757812 32.761719 C 57.28125 32.441406 56.78125 32.175781 56.25 31.957031 C 55.722656 31.738281 55.179688 31.570312 54.617188 31.460938 C 54.058594 31.347656 53.492188 31.292969 52.917969 31.292969 M 49.1875 40.003906 C 49.1875 39.507812 49.28125 39.03125 49.46875 38.574219 C 49.660156 38.117188 49.929688 37.714844 50.28125 37.363281 C 50.628906 37.011719 51.03125 36.742188 51.492188 36.554688 C 51.949219 36.363281 52.421875 36.269531 52.917969 36.269531 C 53.414062 36.269531 53.890625 36.363281 54.347656 36.554688 C 54.804688 36.742188 55.207031 37.011719 55.558594 37.363281 C 55.90625 37.714844 56.175781 38.117188 56.367188 38.574219 C 56.554688 39.03125 56.652344 39.507812 56.652344 40.003906 C 56.652344 40.496094 56.554688 40.972656 56.367188 41.429688 C 56.175781 41.886719 55.90625 42.292969 55.558594 42.640625 C 55.207031 42.992188 54.804688 43.261719 54.347656 43.449219 C 53.890625 43.640625 53.414062 43.734375 52.917969 43.734375 C 52.421875 43.734375 51.949219 43.640625 51.492188 43.449219 C 51.03125 43.261719 50.628906 42.992188 50.28125 42.640625 C 49.929688 42.292969 49.660156 41.886719 49.46875 41.429688 C 49.28125 40.972656 49.1875 40.496094 49.1875 40.003906 " fill-opacity="1" fill-rule="nonzero"/><path fill="#000000" d="M 66.667969 12.917969 L 58.757812 1.828125 L 29.671875 25.066406 L 28.058594 25.046875 L 28.058594 25.074219 L 26.792969 25.074219 L 26.792969 54.933594 L 79.046875 54.933594 L 79.046875 25.074219 L 76.652344 25.074219 L 71.890625 11.140625 Z M 71.394531 25.074219 L 46.441406 25.074219 L 65.027344 18.738281 L 68.8125 17.523438 Z M 61.753906 14.597656 L 42.566406 21.136719 L 57.761719 8.996094 Z M 31.769531 45.398438 L 31.769531 34.601562 C 32.832031 34.226562 33.761719 33.636719 34.5625 32.839844 C 35.359375 32.042969 35.945312 31.113281 36.320312 30.050781 L 69.515625 30.050781 C 69.890625 31.113281 70.476562 32.042969 71.277344 32.84375 C 72.074219 33.640625 73.003906 34.226562 74.070312 34.601562 L 74.070312 45.402344 C 73.003906 45.777344 72.074219 46.363281 71.277344 47.164062 C 70.476562 47.960938 69.890625 48.890625 69.515625 49.957031 L 36.328125 49.957031 C 35.949219 48.890625 35.359375 47.960938 34.5625 47.164062 C 33.765625 46.363281 32.832031 45.777344 31.769531 45.398438 " fill-opacity="1" fill-rule="nonzero"/><g fill="#000000" fill-opacity="1"><g transform="translate(3.894229, 72.382379)"><g><path d="M 5.875 -11.359375 C 6.6875 -11.359375 7.378906 -11.207031 7.953125 -10.90625 C 8.535156 -10.613281 8.972656 -10.195312 9.265625 -9.65625 C 9.554688 -9.125 9.703125 -8.503906 9.703125 -7.796875 C 9.703125 -7.085938 9.554688 -6.460938 9.265625 -5.921875 C 8.972656 -5.390625 8.535156 -4.972656 7.953125 -4.671875 C 7.378906 -4.378906 6.6875 -4.234375 5.875 -4.234375 L 3.71875 -4.234375 L 3.71875 0 L 1.484375 0 L 1.484375 -11.359375 Z M 5.578125 -6.015625 C 6.828125 -6.015625 7.453125 -6.609375 7.453125 -7.796875 C 7.453125 -8.984375 6.828125 -9.578125 5.578125 -9.578125 L 3.71875 -9.578125 L 3.71875 -6.015625 Z M 5.578125 -6.015625 "/></g></g></g><g fill="#000000" fill-opacity="1"><g transform="translate(14.280419, 72.382379)"><g><path d="M 3.71875 -4.984375 L 3.71875 -1.875 L 9.15625 -1.875 L 9.15625 0 L 1.484375 0 L 1.484375 -11.359375 L 9.03125 -11.359375 L 9.03125 -9.484375 L 3.71875 -9.484375 L 3.71875 -6.828125 L 8.359375 -6.828125 L 8.359375 -4.984375 Z M 3.71875 -4.984375 "/></g></g></g><g fill="#000000" fill-opacity="1"><g transform="translate(24.052461, 72.382379)"><g><path d="M 9.109375 -11.359375 L 9.109375 -9.484375 L 5.828125 -9.484375 L 5.828125 0 L 3.59375 0 L 3.59375 -9.484375 L 0.3125 -9.484375 L 0.3125 -11.359375 Z M 9.109375 -11.359375 "/></g></g></g><g fill="#000000" fill-opacity="1"><g transform="translate(33.474663, 72.382379)"><g><path d="M 9.109375 -11.359375 L 9.109375 -9.484375 L 5.828125 -9.484375 L 5.828125 0 L 3.59375 0 L 3.59375 -9.484375 L 0.3125 -9.484375 L 0.3125 -11.359375 Z M 9.109375 -11.359375 "/></g></g></g><g fill="#000000" fill-opacity="1"><g transform="translate(42.896866, 72.382379)"><g><path d="M 6.234375 0 L 3.984375 0 L 3.984375 -4.46875 L 0.046875 -11.359375 L 2.46875 -11.359375 L 5.0625 -6.890625 L 5.25 -6.890625 L 7.796875 -11.359375 L 10.15625 -11.359375 L 6.234375 -4.46875 Z M 6.234375 0 "/></g></g></g><g fill="#000000" fill-opacity="1"><g transform="translate(53.104257, 72.382379)"><g/></g></g><g fill="#000000" fill-opacity="1"><g transform="translate(56.85915, 72.382379)"><g><path d="M 6.21875 0.15625 C 5.164062 0.15625 4.238281 -0.0546875 3.4375 -0.484375 C 2.644531 -0.921875 2.019531 -1.578125 1.5625 -2.453125 C 1.113281 -3.328125 0.890625 -4.40625 0.890625 -5.6875 C 0.890625 -6.96875 1.113281 -8.039062 1.5625 -8.90625 C 2.019531 -9.78125 2.644531 -10.4375 3.4375 -10.875 C 4.238281 -11.3125 5.164062 -11.53125 6.21875 -11.53125 C 7.3125 -11.53125 8.238281 -11.316406 9 -10.890625 C 9.757812 -10.460938 10.304688 -9.8125 10.640625 -8.9375 L 9 -7.9375 L 8.796875 -7.9375 C 8.554688 -8.53125 8.226562 -8.953125 7.8125 -9.203125 C 7.394531 -9.460938 6.863281 -9.59375 6.21875 -9.59375 C 5.269531 -9.59375 4.53125 -9.28125 4 -8.65625 C 3.46875 -8.03125 3.203125 -7.039062 3.203125 -5.6875 C 3.203125 -4.332031 3.46875 -3.34375 4 -2.71875 C 4.53125 -2.09375 5.269531 -1.78125 6.21875 -1.78125 C 7.6875 -1.78125 8.585938 -2.5 8.921875 -3.9375 L 9.125 -3.9375 L 10.78125 -3.078125 C 10.46875 -1.992188 9.929688 -1.179688 9.171875 -0.640625 C 8.421875 -0.109375 7.4375 0.15625 6.21875 0.15625 Z M 6.21875 0.15625 "/></g></g></g><g fill="#000000" fill-opacity="1"><g transform="translate(68.007201, 72.382379)"><g><path d="M 10.90625 0 L 8.546875 0 L 7.6875 -2.625 L 3.328125 -2.625 L 2.484375 0 L 0.171875 0 L 4.09375 -11.359375 L 6.984375 -11.359375 Z M 5.40625 -9 L 3.9375 -4.515625 L 7.0625 -4.515625 L 5.59375 -9 Z M 5.40625 -9 "/></g></g></g><g fill="#000000" fill-opacity="1"><g transform="translate(79.085291, 72.382379)"><g><path d="M 5.03125 0.15625 C 4.25 0.15625 3.550781 0.0625 2.9375 -0.125 C 2.320312 -0.320312 1.804688 -0.578125 1.390625 -0.890625 C 0.984375 -1.210938 0.671875 -1.5625 0.453125 -1.9375 L 1.6875 -3.4375 L 1.890625 -3.4375 C 2.234375 -2.9375 2.664062 -2.535156 3.1875 -2.234375 C 3.71875 -1.929688 4.332031 -1.78125 5.03125 -1.78125 C 5.632812 -1.78125 6.085938 -1.90625 6.390625 -2.15625 C 6.703125 -2.414062 6.859375 -2.765625 6.859375 -3.203125 C 6.859375 -3.472656 6.804688 -3.695312 6.703125 -3.875 C 6.609375 -4.0625 6.445312 -4.21875 6.21875 -4.34375 C 5.988281 -4.476562 5.679688 -4.59375 5.296875 -4.6875 L 3.828125 -5.015625 C 2.804688 -5.253906 2.046875 -5.644531 1.546875 -6.1875 C 1.046875 -6.726562 0.796875 -7.429688 0.796875 -8.296875 C 0.796875 -8.941406 0.957031 -9.503906 1.28125 -9.984375 C 1.601562 -10.472656 2.070312 -10.851562 2.6875 -11.125 C 3.300781 -11.394531 4.035156 -11.53125 4.890625 -11.53125 C 5.765625 -11.53125 6.515625 -11.414062 7.140625 -11.1875 C 7.765625 -10.957031 8.289062 -10.601562 8.71875 -10.125 L 7.609375 -8.59375 L 7.421875 -8.59375 C 7.097656 -8.9375 6.726562 -9.191406 6.3125 -9.359375 C 5.894531 -9.523438 5.421875 -9.609375 4.890625 -9.609375 C 4.273438 -9.609375 3.804688 -9.5 3.484375 -9.28125 C 3.160156 -9.0625 3 -8.757812 3 -8.375 C 3 -8.019531 3.109375 -7.734375 3.328125 -7.515625 C 3.554688 -7.304688 3.953125 -7.144531 4.515625 -7.03125 L 6 -6.71875 C 7.101562 -6.488281 7.90625 -6.09375 8.40625 -5.53125 C 8.90625 -4.976562 9.15625 -4.25 9.15625 -3.34375 C 9.15625 -2.632812 9 -2.015625 8.6875 -1.484375 C 8.382812 -0.960938 7.921875 -0.554688 7.296875 -0.265625 C 6.679688 0.015625 5.925781 0.15625 5.03125 0.15625 Z M 5.03125 0.15625 "/></g></g></g><g fill="#000000" fill-opacity="1"><g transform="translate(88.849554, 72.382379)"><g><path d="M 8.8125 -7.09375 L 8.8125 -11.359375 L 11.0625 -11.359375 L 11.0625 0 L 8.8125 0 L 8.8125 -5.171875 L 3.71875 -5.171875 L 3.71875 0 L 1.484375 0 L 1.484375 -11.359375 L 3.71875 -11.359375 L 3.71875 -7.09375 Z M 8.8125 -7.09375 "/></g></g></g></svg>