<svg xmlns="http://www.w3.org/2000/svg" xmlns:xlink="http://www.w3.org/1999/xlink" width="208" zoomAndPan="magnify" viewBox="0 0 156 77.999999" height="104" preserveAspectRatio="xMidYMid meet" version="1.0"><defs><g/></defs><path fill="#000000" d="M 82.800781 12.5 C 83.472656 12.5 84.050781 12.734375 84.535156 13.199219 L 84.753906 13.4375 L 94 25 L 95.300781 25 C 95.773438 25 96.246094 25.042969 96.710938 25.132812 C 97.175781 25.222656 97.628906 25.355469 98.070312 25.53125 C 98.507812 25.703125 98.929688 25.917969 99.328125 26.171875 C 99.730469 26.429688 100.101562 26.71875 100.445312 27.042969 C 100.792969 27.367188 101.101562 27.722656 101.378906 28.105469 C 101.65625 28.492188 101.898438 28.898438 102.097656 29.328125 C 102.296875 29.757812 102.457031 30.203125 102.570312 30.660156 C 102.6875 31.121094 102.761719 31.585938 102.789062 32.058594 L 102.800781 32.5 L 102.800781 42.5 C 102.800781 42.832031 102.738281 43.152344 102.609375 43.457031 C 102.484375 43.761719 102.304688 44.035156 102.070312 44.269531 C 101.835938 44.503906 101.5625 44.683594 101.257812 44.808594 C 100.949219 44.9375 100.632812 45 100.300781 45 L 97.375 45 C 97.113281 45.730469 96.75 46.40625 96.28125 47.023438 C 95.816406 47.640625 95.265625 48.175781 94.632812 48.625 C 93.996094 49.070312 93.3125 49.410156 92.574219 49.648438 C 91.832031 49.882812 91.078125 50 90.300781 50 C 89.523438 50 88.769531 49.882812 88.027344 49.648438 C 87.289062 49.410156 86.605469 49.070312 85.96875 48.625 C 85.335938 48.175781 84.785156 47.640625 84.316406 47.023438 C 83.851562 46.40625 83.488281 45.730469 83.226562 45 L 72.375 45 C 72.113281 45.730469 71.75 46.40625 71.28125 47.023438 C 70.816406 47.640625 70.265625 48.175781 69.632812 48.625 C 68.996094 49.070312 68.3125 49.410156 67.574219 49.648438 C 66.832031 49.882812 66.078125 50 65.300781 50 C 64.523438 50 63.769531 49.882812 63.027344 49.648438 C 62.289062 49.410156 61.605469 49.070312 60.96875 48.625 C 60.335938 48.175781 59.785156 47.640625 59.316406 47.023438 C 58.851562 46.40625 58.488281 45.730469 58.226562 45 L 55.300781 45 C 54.96875 45 54.648438 44.9375 54.34375 44.808594 C 54.039062 44.683594 53.765625 44.503906 53.53125 44.269531 C 53.296875 44.035156 53.117188 43.761719 52.992188 43.457031 C 52.863281 43.152344 52.800781 42.832031 52.800781 42.5 L 52.800781 27.5 L 52.816406 27.207031 L 52.839844 27.066406 L 52.878906 26.871094 L 52.910156 26.78125 L 52.945312 26.65625 L 57.980469 14.074219 C 58.171875 13.597656 58.476562 13.21875 58.898438 12.929688 C 59.324219 12.644531 59.789062 12.5 60.300781 12.5 Z M 65.300781 40 C 64.96875 40 64.648438 40.0625 64.34375 40.191406 C 64.039062 40.316406 63.765625 40.496094 63.53125 40.730469 C 63.296875 40.964844 63.117188 41.238281 62.992188 41.542969 C 62.863281 41.847656 62.800781 42.167969 62.800781 42.5 C 62.800781 42.832031 62.863281 43.152344 62.992188 43.457031 C 63.117188 43.761719 63.296875 44.035156 63.53125 44.269531 C 63.765625 44.503906 64.039062 44.683594 64.34375 44.808594 C 64.648438 44.9375 64.96875 45 65.300781 45 C 65.632812 45 65.949219 44.9375 66.257812 44.808594 C 66.5625 44.683594 66.835938 44.503906 67.070312 44.269531 C 67.304688 44.035156 67.484375 43.761719 67.609375 43.457031 C 67.738281 43.152344 67.800781 42.832031 67.800781 42.5 C 67.800781 42.167969 67.738281 41.847656 67.609375 41.542969 C 67.484375 41.238281 67.304688 40.964844 67.070312 40.730469 C 66.835938 40.496094 66.5625 40.316406 66.257812 40.191406 C 65.949219 40.0625 65.632812 40 65.300781 40 M 90.300781 40 C 89.96875 40 89.648438 40.0625 89.34375 40.191406 C 89.039062 40.316406 88.765625 40.496094 88.53125 40.730469 C 88.296875 40.964844 88.117188 41.238281 87.992188 41.542969 C 87.863281 41.847656 87.800781 42.167969 87.800781 42.5 C 87.800781 42.832031 87.863281 43.152344 87.992188 43.457031 C 88.117188 43.761719 88.296875 44.035156 88.53125 44.269531 C 88.765625 44.503906 89.039062 44.683594 89.34375 44.808594 C 89.648438 44.9375 89.96875 45 90.300781 45 C 90.632812 45 90.949219 44.9375 91.257812 44.808594 C 91.5625 44.683594 91.835938 44.503906 92.070312 44.269531 C 92.304688 44.035156 92.484375 43.761719 92.609375 43.457031 C 92.738281 43.152344 92.800781 42.832031 92.800781 42.5 C 92.800781 42.167969 92.738281 41.847656 92.609375 41.542969 C 92.484375 41.238281 92.304688 40.964844 92.070312 40.730469 C 91.835938 40.496094 91.5625 40.316406 91.257812 40.191406 C 90.949219 40.0625 90.632812 40 90.300781 40 M 75.300781 17.5 L 61.992188 17.5 L 58.992188 25 L 75.300781 25 Z M 81.601562 17.5 L 80.300781 17.5 L 80.300781 25 L 87.601562 25 Z M 81.601562 17.5 " fill-opacity="1" fill-rule="nonzero"/><g fill="#000000" fill-opacity="1"><g transform="translate(3.912512, 69.524475)"><g><path d="M 9.15625 -11.421875 L 9.15625 -9.53125 L 5.859375 -9.53125 L 5.859375 0 L 3.609375 0 L 3.609375 -9.53125 L 0.3125 -9.53125 L 0.3125 -11.421875 Z M 9.15625 -11.421875 "/></g></g></g><g fill="#000000" fill-opacity="1"><g transform="translate(13.37895, 69.524475)"><g><path d="M 1.484375 0 L 1.484375 -11.421875 L 6.078125 -11.421875 C 7.253906 -11.421875 8.144531 -11.148438 8.75 -10.609375 C 9.351562 -10.066406 9.65625 -9.316406 9.65625 -8.359375 C 9.65625 -7.660156 9.476562 -7.085938 9.125 -6.640625 C 8.769531 -6.203125 8.242188 -5.867188 7.546875 -5.640625 L 7.546875 -5.46875 C 7.910156 -5.3125 8.203125 -5.078125 8.421875 -4.765625 C 8.640625 -4.460938 8.847656 -4.007812 9.046875 -3.40625 L 10.1875 0 L 7.875 0 L 6.75 -3.421875 C 6.632812 -3.765625 6.503906 -4.03125 6.359375 -4.21875 C 6.222656 -4.40625 6.039062 -4.539062 5.8125 -4.625 C 5.59375 -4.71875 5.304688 -4.765625 4.953125 -4.765625 L 3.75 -4.765625 L 3.75 0 Z M 5.796875 -6.546875 C 6.890625 -6.546875 7.4375 -7.054688 7.4375 -8.078125 C 7.4375 -9.117188 6.890625 -9.640625 5.796875 -9.640625 L 3.75 -9.640625 L 3.75 -6.546875 Z M 5.796875 -6.546875 "/></g></g></g><g fill="#000000" fill-opacity="1"><g transform="translate(24.056036, 69.524475)"><g><path d="M 10.96875 0 L 8.59375 0 L 7.734375 -2.640625 L 3.359375 -2.640625 L 2.5 0 L 0.171875 0 L 4.125 -11.421875 L 7.015625 -11.421875 Z M 5.4375 -9.046875 L 3.96875 -4.53125 L 7.109375 -4.53125 L 5.625 -9.046875 Z M 5.4375 -9.046875 "/></g></g></g><g fill="#000000" fill-opacity="1"><g transform="translate(35.186135, 69.524475)"><g><path d="M 3.671875 0 L 1.484375 0 L 1.484375 -11.421875 L 4.078125 -11.421875 L 8.65625 -4.0625 L 8.859375 -4.09375 L 8.859375 -11.421875 L 11.03125 -11.421875 L 11.03125 0 L 8.71875 0 L 3.875 -7.859375 L 3.671875 -7.828125 Z M 3.671875 0 "/></g></g></g><g fill="#000000" fill-opacity="1"><g transform="translate(47.706521, 69.524475)"><g><path d="M 5.0625 0.171875 C 4.269531 0.171875 3.566406 0.0703125 2.953125 -0.125 C 2.335938 -0.320312 1.820312 -0.578125 1.40625 -0.890625 C 1 -1.210938 0.6875 -1.566406 0.46875 -1.953125 L 1.703125 -3.46875 L 1.90625 -3.46875 C 2.25 -2.957031 2.679688 -2.550781 3.203125 -2.25 C 3.734375 -1.945312 4.351562 -1.796875 5.0625 -1.796875 C 5.664062 -1.796875 6.117188 -1.921875 6.421875 -2.171875 C 6.734375 -2.429688 6.890625 -2.785156 6.890625 -3.234375 C 6.890625 -3.503906 6.835938 -3.726562 6.734375 -3.90625 C 6.640625 -4.09375 6.476562 -4.25 6.25 -4.375 C 6.019531 -4.507812 5.710938 -4.625 5.328125 -4.71875 L 3.859375 -5.046875 C 2.828125 -5.285156 2.0625 -5.675781 1.5625 -6.21875 C 1.0625 -6.757812 0.8125 -7.46875 0.8125 -8.34375 C 0.8125 -8.988281 0.972656 -9.554688 1.296875 -10.046875 C 1.617188 -10.535156 2.085938 -10.914062 2.703125 -11.1875 C 3.316406 -11.457031 4.054688 -11.59375 4.921875 -11.59375 C 5.796875 -11.59375 6.546875 -11.472656 7.171875 -11.234375 C 7.804688 -11.003906 8.335938 -10.648438 8.765625 -10.171875 L 7.65625 -8.640625 L 7.453125 -8.640625 C 7.128906 -8.984375 6.757812 -9.238281 6.34375 -9.40625 C 5.925781 -9.570312 5.453125 -9.65625 4.921875 -9.65625 C 4.296875 -9.65625 3.820312 -9.546875 3.5 -9.328125 C 3.175781 -9.109375 3.015625 -8.804688 3.015625 -8.421875 C 3.015625 -8.066406 3.128906 -7.78125 3.359375 -7.5625 C 3.585938 -7.351562 3.976562 -7.1875 4.53125 -7.0625 L 6.03125 -6.75 C 7.144531 -6.519531 7.953125 -6.125 8.453125 -5.5625 C 8.953125 -5 9.203125 -4.269531 9.203125 -3.375 C 9.203125 -2.65625 9.046875 -2.03125 8.734375 -1.5 C 8.429688 -0.976562 7.96875 -0.566406 7.34375 -0.265625 C 6.726562 0.0234375 5.96875 0.171875 5.0625 0.171875 Z M 5.0625 0.171875 "/></g></g></g><g fill="#000000" fill-opacity="1"><g transform="translate(57.516624, 69.524475)"><g><path d="M 5.90625 -11.421875 C 6.71875 -11.421875 7.414062 -11.269531 8 -10.96875 C 8.582031 -10.675781 9.019531 -10.257812 9.3125 -9.71875 C 9.613281 -9.175781 9.765625 -8.550781 9.765625 -7.84375 C 9.765625 -7.125 9.613281 -6.492188 9.3125 -5.953125 C 9.019531 -5.421875 8.582031 -5.003906 8 -4.703125 C 7.414062 -4.410156 6.71875 -4.265625 5.90625 -4.265625 L 3.75 -4.265625 L 3.75 0 L 1.484375 0 L 1.484375 -11.421875 Z M 5.609375 -6.046875 C 6.859375 -6.046875 7.484375 -6.644531 7.484375 -7.84375 C 7.484375 -9.039062 6.859375 -9.640625 5.609375 -9.640625 L 3.75 -9.640625 L 3.75 -6.046875 Z M 5.609375 -6.046875 "/></g></g></g><g fill="#000000" fill-opacity="1"><g transform="translate(67.951576, 69.524475)"><g><path d="M 6.234375 0.171875 C 5.179688 0.171875 4.253906 -0.0390625 3.453125 -0.46875 C 2.660156 -0.90625 2.035156 -1.5625 1.578125 -2.4375 C 1.128906 -3.3125 0.90625 -4.40625 0.90625 -5.71875 C 0.90625 -7.019531 1.128906 -8.109375 1.578125 -8.984375 C 2.035156 -9.867188 2.660156 -10.523438 3.453125 -10.953125 C 4.253906 -11.378906 5.179688 -11.59375 6.234375 -11.59375 C 7.273438 -11.59375 8.191406 -11.378906 8.984375 -10.953125 C 9.785156 -10.523438 10.410156 -9.867188 10.859375 -8.984375 C 11.316406 -8.109375 11.546875 -7.019531 11.546875 -5.71875 C 11.546875 -4.40625 11.316406 -3.304688 10.859375 -2.421875 C 10.410156 -1.546875 9.785156 -0.894531 8.984375 -0.46875 C 8.191406 -0.0390625 7.273438 0.171875 6.234375 0.171875 Z M 6.234375 -1.796875 C 7.203125 -1.796875 7.941406 -2.109375 8.453125 -2.734375 C 8.960938 -3.359375 9.21875 -4.351562 9.21875 -5.71875 C 9.21875 -7.082031 8.960938 -8.078125 8.453125 -8.703125 C 7.941406 -9.328125 7.203125 -9.640625 6.234375 -9.640625 C 5.253906 -9.640625 4.507812 -9.328125 4 -8.703125 C 3.488281 -8.078125 3.234375 -7.082031 3.234375 -5.71875 C 3.234375 -4.351562 3.488281 -3.359375 4 -2.734375 C 4.507812 -2.109375 5.253906 -1.796875 6.234375 -1.796875 Z M 6.234375 -1.796875 "/></g></g></g><g fill="#000000" fill-opacity="1"><g transform="translate(80.393855, 69.524475)"><g><path d="M 1.484375 0 L 1.484375 -11.421875 L 6.078125 -11.421875 C 7.253906 -11.421875 8.144531 -11.148438 8.75 -10.609375 C 9.351562 -10.066406 9.65625 -9.316406 9.65625 -8.359375 C 9.65625 -7.660156 9.476562 -7.085938 9.125 -6.640625 C 8.769531 -6.203125 8.242188 -5.867188 7.546875 -5.640625 L 7.546875 -5.46875 C 7.910156 -5.3125 8.203125 -5.078125 8.421875 -4.765625 C 8.640625 -4.460938 8.847656 -4.007812 9.046875 -3.40625 L 10.1875 0 L 7.875 0 L 6.75 -3.421875 C 6.632812 -3.765625 6.503906 -4.03125 6.359375 -4.21875 C 6.222656 -4.40625 6.039062 -4.539062 5.8125 -4.625 C 5.59375 -4.71875 5.304688 -4.765625 4.953125 -4.765625 L 3.75 -4.765625 L 3.75 0 Z M 5.796875 -6.546875 C 6.890625 -6.546875 7.4375 -7.054688 7.4375 -8.078125 C 7.4375 -9.117188 6.890625 -9.640625 5.796875 -9.640625 L 3.75 -9.640625 L 3.75 -6.546875 Z M 5.796875 -6.546875 "/></g></g></g><g fill="#000000" fill-opacity="1"><g transform="translate(91.07094, 69.524475)"><g><path d="M 9.15625 -11.421875 L 9.15625 -9.53125 L 5.859375 -9.53125 L 5.859375 0 L 3.609375 0 L 3.609375 -9.53125 L 0.3125 -9.53125 L 0.3125 -11.421875 Z M 9.15625 -11.421875 "/></g></g></g><g fill="#000000" fill-opacity="1"><g transform="translate(100.537378, 69.524475)"><g><path d="M 10.96875 0 L 8.59375 0 L 7.734375 -2.640625 L 3.359375 -2.640625 L 2.5 0 L 0.171875 0 L 4.125 -11.421875 L 7.015625 -11.421875 Z M 5.4375 -9.046875 L 3.96875 -4.53125 L 7.109375 -4.53125 L 5.625 -9.046875 Z M 5.4375 -9.046875 "/></g></g></g><g fill="#000000" fill-opacity="1"><g transform="translate(111.667478, 69.524475)"><g><path d="M 9.15625 -11.421875 L 9.15625 -9.53125 L 5.859375 -9.53125 L 5.859375 0 L 3.609375 0 L 3.609375 -9.53125 L 0.3125 -9.53125 L 0.3125 -11.421875 Z M 9.15625 -11.421875 "/></g></g></g><g fill="#000000" fill-opacity="1"><g transform="translate(121.133916, 69.524475)"><g><path d="M 3.75 0 L 1.484375 0 L 1.484375 -11.421875 L 3.75 -11.421875 Z M 3.75 0 "/></g></g></g><g fill="#000000" fill-opacity="1"><g transform="translate(126.367012, 69.524475)"><g><path d="M 6.234375 0.171875 C 5.179688 0.171875 4.253906 -0.0390625 3.453125 -0.46875 C 2.660156 -0.90625 2.035156 -1.5625 1.578125 -2.4375 C 1.128906 -3.3125 0.90625 -4.40625 0.90625 -5.71875 C 0.90625 -7.019531 1.128906 -8.109375 1.578125 -8.984375 C 2.035156 -9.867188 2.660156 -10.523438 3.453125 -10.953125 C 4.253906 -11.378906 5.179688 -11.59375 6.234375 -11.59375 C 7.273438 -11.59375 8.191406 -11.378906 8.984375 -10.953125 C 9.785156 -10.523438 10.410156 -9.867188 10.859375 -8.984375 C 11.316406 -8.109375 11.546875 -7.019531 11.546875 -5.71875 C 11.546875 -4.40625 11.316406 -3.304688 10.859375 -2.421875 C 10.410156 -1.546875 9.785156 -0.894531 8.984375 -0.46875 C 8.191406 -0.0390625 7.273438 0.171875 6.234375 0.171875 Z M 6.234375 -1.796875 C 7.203125 -1.796875 7.941406 -2.109375 8.453125 -2.734375 C 8.960938 -3.359375 9.21875 -4.351562 9.21875 -5.71875 C 9.21875 -7.082031 8.960938 -8.078125 8.453125 -8.703125 C 7.941406 -9.328125 7.203125 -9.640625 6.234375 -9.640625 C 5.253906 -9.640625 4.507812 -9.328125 4 -8.703125 C 3.488281 -8.078125 3.234375 -7.082031 3.234375 -5.71875 C 3.234375 -4.351562 3.488281 -3.359375 4 -2.734375 C 4.507812 -2.109375 5.253906 -1.796875 6.234375 -1.796875 Z M 6.234375 -1.796875 "/></g></g></g><g fill="#000000" fill-opacity="1"><g transform="translate(138.809292, 69.524475)"><g><path d="M 3.671875 0 L 1.484375 0 L 1.484375 -11.421875 L 4.078125 -11.421875 L 8.65625 -4.0625 L 8.859375 -4.09375 L 8.859375 -11.421875 L 11.03125 -11.421875 L 11.03125 0 L 8.71875 0 L 3.875 -7.859375 L 3.671875 -7.828125 Z M 3.671875 0 "/></g></g></g></svg>